#!OML:ASF H:\LiuWeirdWalks\Patient Classification 1\Patient 1\Session 1\male.ASF
:FULLY-SPECIFIED
:DEGREES
453
root 1.08744 18.0383 -26.4741 5.97565 7.39689 -9.83855
lowerback 8.50461 0.0479765 -2.28624
upperback 0.868907 -0.161357 -0.303897
thorax -3.86293 -0.0453549 0.989689
lowerneck -30.4777 3.74854 15.8073
upperneck 34.5171 1.48271 -10.2868
head 18.3546 1.19552 -7.31413
rclavicle 3.33958e-014 -4.77083e-015
rhumerus -23.0771 -35.2328 -1.47655
rradius 26.9752
rwrist 3.96379
rhand -23.5566 -0.346432
rfingers 7.12502
rthumb 2.90558 -30.3064
lclavicle 3.33958e-014 -4.77083e-015
lhumerus -20.2399 28.4782 28.7896
lradius 36.9146
lwrist 8.14173
lhand -20.5376 -1.78474
lfingers 7.12502
lthumb 5.82076 28.1153
rfemur 2.6257 -9.15434 23.9781
rtibia 26.785
rfoot -1.50052 -13.6857
rtoes -22.6002
lfemur -22.5279 0.225469 -7.2072
ltibia 32.0216
lfoot -10.8791 12.5234
ltoes -5.99321
454
root 1.13376 18.0387 -26.4304 5.90624 7.37525 -9.5703
lowerback 8.474 0.104787 -2.25308
upperback 0.897479 -0.0773936 -0.203311
thorax -3.81887 -0.00428924 1.06545
lowerneck -30.4889 3.70273 15.7637
upperneck 34.4532 1.49686 -10.4402
head 18.3241 1.16848 -7.37469
rclavicle -1.98785e-015 4.77083e-015
rhumerus -23.1044 -35.3197 -1.55223
rradius 26.9871
rwrist 4.07227
rhand -23.5956 -0.268411
rfingers 7.12502
rthumb 2.86792 -30.2289
lclavicle -1.98785e-015 4.77083e-015
lhumerus -20.2076 28.443 28.5782
lradius 36.9405
lwrist 8.21913
lhand -20.5278 -1.75804
lfingers 7.12502
lthumb 5.83021 28.1417
rfemur 2.29444 -9.09088 23.4982
rtibia 27.8168
rfoot -1.20723 -13.7165
rtoes -22.4905
lfemur -22.1633 0.136651 -7.65781
ltibia 31.8895
lfoot -11.0182 12.57
ltoes -5.97628
455
root 1.17972 18.0399 -26.3871 5.83834 7.36487 -9.27655
lowerback 8.46504 0.157157 -2.24191
upperback 0.917106 -0.00231 -0.106083
thorax -3.79609 0.0329954 1.15121
lowerneck -30.4894 3.64624 15.7074
upperneck 34.3943 1.50292 -10.5915
head 18.2918 1.13711 -7.43378
rclavicle 7.15625e-015 1.43125e-014
rhumerus -23.1238 -35.3908 -1.63801
rradius 26.9936
rwrist 4.15595
rhand -23.6403 -0.22995
rfingers 7.12502
rthumb 2.82472 -30.191
lclavicle 7.15625e-015 1.43125e-014
lhumerus -20.201 28.3715 28.3813
lradius 36.9628
lwrist 8.29458
lhand -20.4913 -1.73629
lfingers 7.12502
lthumb 5.86554 28.1625
rfemur 1.91194 -9.0458 22.9927
rtibia 28.919
rfoot -0.855204 -13.7239
rtoes -22.2812
lfemur -21.7848 0.0512276 -8.14045
ltibia 31.7225
lfoot -11.1282 12.6146
ltoes -5.95245
456
root 1.22535 18.042 -26.3439 5.77286 7.37786 -8.95223
lowerback 8.4547 0.199127 -2.2546
upperback 0.944822 0.0566857 -0.0134007
thorax -3.76378 0.0624709 1.24759
lowerneck -30.537 3.57003 15.6017
upperneck 34.4057 1.48545 -10.7107
head 18.3041 1.09829 -7.48209
rclavicle 3.57812e-015 -2.54444e-014
rhumerus -23.1229 -35.4741 -1.74084
rradius 26.9862
rwrist 4.21072
rhand -23.6827 -0.216749
rfingers 7.12502
rthumb 2.78375 -30.1783
lclavicle 3.57812e-015 -2.54444e-014
lhumerus -20.2034 28.3148 28.2004
lradius 36.97
lwrist 8.32677
lhand -20.412 -1.75353
lfingers 7.12502
lthumb 5.94208 28.1431
rfemur 1.48508 -9.02034 22.4589
rtibia 30.0819
rfoot -0.453935 -13.7107
rtoes -21.945
lfemur -21.3969 -0.0469859 -8.6606
ltibia 31.5192
lfoot -11.1949 12.6671
ltoes -5.92038
457
root 1.2707 18.0448 -26.3011 5.70849 7.41465 -8.60502
lowerback 8.45706 0.229007 -2.27313
upperback 0.96933 0.0983119 0.0701269
thorax -3.74142 0.0834863 1.33979
lowerneck -30.5841 3.48929 15.4931
upperneck 34.4267 1.46394 -10.8317
head 18.321 1.05776 -7.53276
rclavicle -5.1684e-015 -2.54444e-014
rhumerus -23.1118 -35.5284 -1.86663
rradius 26.9708
rwrist 4.22842
rhand -23.7421 -0.240503
rfingers 7.12502
rthumb 2.72645 -30.2028
lclavicle -5.1684e-015 -2.54444e-014
lhumerus -20.225 28.2476 28.0236
lradius 36.9704
lwrist 8.33009
lhand -20.3019 -1.80529
lfingers 7.12502
lthumb 6.04838 28.0884
rfemur 1.01914 -9.00952 21.9059
rtibia 31.2961
rfoot -0.00730017 -13.6702
rtoes -21.4217
lfemur -20.999 -0.159908 -9.21085
ltibia 31.282
lfoot -11.2194 12.7388
ltoes -5.87236
458
root 1.31557 18.0479 -26.2582 5.64286 7.47376 -8.23888
lowerback 8.46277 0.248929 -2.29945
upperback 0.986058 0.12554 0.147494
thorax -3.72855 0.0975989 1.43166
lowerneck -30.5804 3.40863 15.398
upperneck 34.4264 1.44738 -10.9603
head 18.3149 1.01896 -7.58455
rclavicle -1.98785e-015 7.95139e-015
rhumerus -23.0953 -35.5692 -2.00018
rradius 26.9393
rwrist 4.26945
rhand -23.788 -0.271488
rfingers 7.12502
rthumb 2.68215 -30.2344
lclavicle -1.98785e-015 7.95139e-015
lhumerus -20.2623 28.1696 27.8548
lradius 36.9602
lwrist 8.30701
lhand -20.1965 -1.85832
lfingers 7.12502
lthumb 6.1501 28.0324
rfemur 0.524049 -9.01272 21.3386
rtibia 32.5475
rfoot 0.487094 -13.6057
rtoes -20.6638
lfemur -20.5911 -0.295663 -9.78396
ltibia 31.0169
lfoot -11.2004 12.8345
ltoes -5.80681
459
root 1.36007 18.051 -26.2155 5.57438 7.55466 -7.85832
lowerback 8.46943 0.261965 -2.3338
upperback 1.00638 0.142992 0.227354
thorax -3.71219 0.106917 1.53179
lowerneck -30.5511 3.33407 15.3126
upperneck 34.393 1.44507 -11.1047
head 18.2875 0.983008 -7.63848
rclavicle 1.98785e-014 1.59028e-015
rhumerus -23.076 -35.6154 -2.12158
rradius 26.8917
rwrist 4.35989
rhand -23.8056 -0.290864
rfingers 7.12502
rthumb 2.66511 -30.254
lclavicle 1.98785e-014 1.59028e-015
lhumerus -20.3106 28.0942 27.7164
lradius 36.9525
lwrist 8.27122
lhand -20.0935 -1.91292
lfingers 7.12502
lthumb 6.24952 27.9749
rfemur 0.00948433 -9.0279 20.7623
rtibia 33.8253
rfoot 1.01489 -13.5008
rtoes -19.6344
lfemur -20.173 -0.466597 -10.3745
ltibia 30.7313
lfoot -11.1474 12.9617
ltoes -5.72324
460
root 1.4039 18.0538 -26.1729 5.50413 7.64809 -7.48673
lowerback 8.48179 0.270422 -2.35338
upperback 1.02105 0.155695 0.312041
thorax -3.70471 0.113839 1.62917
lowerneck -30.4541 3.28161 15.2934
upperneck 34.2432 1.47112 -11.3044
head 18.1868 0.952918 -7.71048
rclavicle 3.53837e-014 0
rhumerus -23.0642 -35.6012 -2.23615
rradius 26.8486
rwrist 4.41659
rhand -23.7689 -0.274271
rfingers 7.12502
rthumb 2.70051 -30.2369
lclavicle 3.53837e-014 0
lhumerus -20.3672 28.0013 27.6042
lradius 36.9495
lwrist 8.25048
lhand -20.011 -1.93169
lfingers 7.12502
lthumb 6.3292 27.9538
rfemur -0.526616 -9.04316 20.2084
rtibia 35.1167
rfoot 1.54628 -13.3688
rtoes -18.3925
lfemur -19.7493 -0.671378 -10.9532
ltibia 30.4327
lfoot -11.0779 13.1204
ltoes -5.60184
461
root 1.44649 18.0565 -26.1309 5.43314 7.75225 -7.12139
lowerback 8.49875 0.276073 -2.37355
upperback 1.04107 0.164976 0.40722
thorax -3.69414 0.119043 1.73819
lowerneck -30.3914 3.21909 15.2326
upperneck 34.1327 1.48721 -11.4756
head 18.1138 0.919584 -7.76813
rclavicle -1.63003e-014 -2.38542e-015
rhumerus -23.0416 -35.5806 -2.35059
rradius 26.8087
rwrist 4.47042
rhand -23.6687 -0.235563
rfingers 7.12502
rthumb 2.79736 -30.197
lclavicle -1.63003e-014 -2.38542e-015
lhumerus -20.4161 27.9509 27.5277
lradius 36.9418
lwrist 8.22957
lhand -19.9398 -1.9311
lfingers 7.12502
lthumb 6.39795 27.9523
rfemur -1.08308 -9.05247 19.6789
rtibia 36.4168
rfoot 2.04054 -13.213
rtoes -17.0787
lfemur -19.3242 -0.898375 -11.5213
ltibia 30.1272
lfoot -11.0034 13.2961
ltoes -5.45014
